<svg width="100%" height="100%" viewBox="0 0 834 396" version="1.1" xmlns="http://www.w3.org/2000/svg" xmlns:xlink="http://www.w3.org/1999/xlink" xml:space="preserve" xmlns:serif="http://www.serif.com/" style="fill-rule:evenodd;clip-rule:evenodd;stroke-linejoin:round;stroke-miterlimit:2;">
    <g transform="matrix(1,0,0,1,-12790,-1307)">
        <g transform="matrix(1,0,0,1,-5163.96,0)">
            <g transform="matrix(1,0,0,1,1935.39,-1388.39)">
                <g transform="matrix(2.07261,0,0,2.07261,16006.4,2695.34)">
                    <g>
                        <g>
                            <path d="M108.197,41.75C101.992,35.931 93.847,32.052 84.538,32.052C77.557,32.052 67.473,36.126 66.31,44.27C64.952,52.804 74.648,56.1 80.854,58.233L90.163,61.142C109.555,67.153 123.712,77.432 119.833,101.09C117.507,115.634 111.689,130.567 98.501,140.457C85.509,150.153 69.606,154.226 54.868,154.226C36.445,154.226 19.38,148.02 6,137.547L27.137,106.908C35.476,115.246 45.56,122.034 58.553,122.034C67.473,122.034 77.752,117.573 79.303,107.296C81.048,96.63 66.698,92.945 58.94,90.618C36.058,83.832 21.319,77.626 25.974,49.312C30.628,19.642 54.868,0.25 84.151,0.25C98.889,0.25 116.149,4.903 127.978,12.272L108.197,41.75Z" style="fill:rgb(34,53,111);fill-rule:nonzero;"/>
                          <path d="M153.185,4.128L191.195,4.128L246.657,93.528L247.046,93.528L261.202,4.128L299.21,4.128L276.134,150.347L238.125,150.347L182.663,60.754L182.274,60.754L168.117,150.347L130.108,150.347L153.185,4.128Z" style="fill:rgb(34,53,111);fill-rule:nonzero;"/>
                          <path d="M356.996,36.32L353.118,60.754L394.811,60.754L389.77,92.945L348.076,92.945L338.962,150.347L300.953,150.347L324.03,4.128L408,4.128L402.958,36.32L356.996,36.32Z" style="fill:rgb(34,53,111);fill-rule:nonzero;"/>
                        </g>
                    </g>
                </g>
              <g transform="matrix(1,0,0,1,5163.96,-2.32571)">
                    <text x="10854.9px" y="3093.05px" style="font-family:'SourceSansPro-Bold', 'Source Sans Pro', sans-serif;font-weight:700;font-size:50px;fill:rgb(34,53,111);">R<tspan x="10895.8px 10933.4px 10971.4px 11011.4px 11055.8px 11099.2px 11137.2px 11162.5px 11202.9px 11239px 11276.6px 11309.4px 11348.7px 11392.6px 11430.2px 11478.5px 11503.8px 11540.8px 11578.8px 11618.9px " y="3093.05px 3093.05px 3093.05px 3093.05px 3093.05px 3093.05px 3093.05px 3093.05px 3093.05px 3093.05px 3093.05px 3093.05px 3093.05px 3093.05px 3093.05px 3093.05px 3093.05px 3093.05px 3093.05px 3093.05px ">ESPONSIBLE CHEMISTRY</tspan></text>
                </g>
            </g>
        </g>
    </g>
</svg>
